<svg width="961" height="104" viewBox="0 0 961 104" fill="none" xmlns="http://www.w3.org/2000/svg">
<path d="M46.464 103.808C39.7227 103.808 33.4933 102.699 27.776 100.48C22.144 98.176 17.2373 94.976 13.056 90.88C8.87467 86.6987 5.632 81.792 3.328 76.16C1.10933 70.4427 0 64.1707 0 57.344C0 50.688 1.19467 44.544 3.584 38.912C5.97333 33.28 9.25867 28.416 13.44 24.32C17.7067 20.1387 22.6987 16.896 28.416 14.592C34.2187 12.288 40.5333 11.136 47.36 11.136C51.6267 11.136 55.808 11.6907 59.904 12.8C64 13.9093 67.7973 15.5733 71.296 17.792C74.88 19.9253 77.952 22.4853 80.512 25.472L67.2 40.704C65.408 38.8267 63.488 37.2053 61.44 35.84C59.4773 34.3893 57.3013 33.28 54.912 32.512C52.5227 31.744 49.9627 31.36 47.232 31.36C43.8187 31.36 40.576 32 37.504 33.28C34.5173 34.4747 31.872 36.224 29.568 38.528C27.3493 40.7467 25.6 43.4773 24.32 46.72C23.04 49.9627 22.4 53.5893 22.4 57.6C22.4 61.5253 23.04 65.1093 24.32 68.352C25.6 71.5093 27.392 74.24 29.696 76.544C32 78.848 34.7733 80.5973 38.016 81.792C41.344 82.9867 45.0133 83.584 49.024 83.584C51.7547 83.584 54.3573 83.2 56.832 82.432C59.3067 81.664 61.568 80.64 63.616 79.36C65.7493 77.9947 67.6267 76.4587 69.248 74.752L79.744 91.392C77.6107 93.7813 74.752 95.9147 71.168 97.792C67.6693 99.6693 63.744 101.163 59.392 102.272C55.1253 103.296 50.816 103.808 46.464 103.808Z" fill="white"/>
<path d="M79.787 102.528V7.80801H100.267V102.528H79.787Z" fill="white"/>
<path d="M136.868 103.808C129.359 103.808 122.831 102.315 117.284 99.328C111.737 96.256 107.428 92.1173 104.356 86.912C101.284 81.6213 99.748 75.6053 99.748 68.864C99.748 63.6587 100.601 58.88 102.308 54.528C104.015 50.176 106.404 46.4213 109.476 43.264C112.548 40.0213 116.175 37.5467 120.356 35.84C124.623 34.048 129.273 33.152 134.308 33.152C139.087 33.152 143.439 34.0053 147.364 35.712C151.375 37.4187 154.831 39.808 157.732 42.88C160.633 45.952 162.852 49.5787 164.388 53.76C165.924 57.9413 166.607 62.5067 166.436 67.456L166.308 72.96H112.164L109.22 61.44H149.668L147.492 63.872V61.312C147.321 59.1787 146.639 57.3013 145.444 55.68C144.335 53.9733 142.841 52.6507 140.964 51.712C139.087 50.7733 136.953 50.304 134.564 50.304C131.236 50.304 128.377 50.9867 125.988 52.352C123.684 53.632 121.935 55.552 120.74 58.112C119.545 60.5867 118.948 63.6587 118.948 67.328C118.948 71.0827 119.716 74.368 121.252 77.184C122.873 79.9147 125.177 82.048 128.164 83.584C131.236 85.12 134.863 85.888 139.044 85.888C141.945 85.888 144.505 85.4613 146.724 84.608C149.028 83.7547 151.503 82.304 154.148 80.256L163.748 93.824C161.103 96.128 158.287 98.0053 155.3 99.456C152.313 100.907 149.241 101.973 146.084 102.656C143.012 103.424 139.94 103.808 136.868 103.808Z" fill="white"/>
<path d="M191.772 103.68C186.055 103.68 180.935 102.187 176.412 99.2C171.975 96.128 168.433 91.9467 165.788 86.656C163.143 81.28 161.82 75.2213 161.82 68.48C161.82 61.568 163.143 55.4667 165.788 50.176C168.433 44.8853 172.06 40.7467 176.668 37.76C181.276 34.688 186.524 33.152 192.412 33.152C195.655 33.152 198.599 33.6213 201.244 34.56C203.975 35.4987 206.364 36.8213 208.412 38.528C210.46 40.1493 212.209 42.0693 213.66 44.288C215.111 46.4213 216.177 48.7253 216.86 51.2L212.636 50.688V34.56H232.988V102.528H212.252V86.144L216.86 86.016C216.177 88.4053 215.068 90.6667 213.532 92.8C211.996 94.9333 210.119 96.8107 207.9 98.432C205.681 100.053 203.207 101.333 200.476 102.272C197.745 103.211 194.844 103.68 191.772 103.68ZM197.404 86.4C200.561 86.4 203.292 85.6747 205.596 84.224C207.9 82.7733 209.692 80.7253 210.972 78.08C212.252 75.3493 212.892 72.1493 212.892 68.48C212.892 64.8107 212.252 61.6533 210.972 59.008C209.692 56.2773 207.9 54.1867 205.596 52.736C203.292 51.2 200.561 50.432 197.404 50.432C194.332 50.432 191.644 51.2 189.34 52.736C187.121 54.1867 185.372 56.2773 184.092 59.008C182.812 61.6533 182.172 64.8107 182.172 68.48C182.172 72.1493 182.812 75.3493 184.092 78.08C185.372 80.7253 187.121 82.7733 189.34 84.224C191.644 85.6747 194.332 86.4 197.404 86.4Z" fill="white"/>
<path d="M238.259 102.528V34.56H257.715L258.611 56.704L254.771 52.48C255.795 48.8107 257.459 45.5253 259.763 42.624C262.152 39.7227 264.926 37.4187 268.083 35.712C271.24 34.0053 274.611 33.152 278.195 33.152C279.731 33.152 281.139 33.28 282.419 33.536C283.784 33.792 285.022 34.0907 286.131 34.432L280.499 57.088C279.56 56.4907 278.28 56.0213 276.659 55.68C275.123 55.2533 273.502 55.04 271.795 55.04C269.918 55.04 268.168 55.3813 266.547 56.064C264.926 56.6613 263.56 57.5573 262.451 58.752C261.342 59.9467 260.446 61.3547 259.763 62.976C259.166 64.5973 258.867 66.432 258.867 68.48V102.528H238.259Z" fill="white"/>
<path d="M304.091 102.528V32.128H277.467V12.928H353.115V32.128H325.851V102.528H304.091Z" fill="white"/>
<path d="M372.784 103.808C365.701 103.808 359.387 102.272 353.84 99.2C348.379 96.128 344.027 91.9467 340.784 86.656C337.627 81.3653 336.048 75.3067 336.048 68.48C336.048 61.6533 337.627 55.5947 340.784 50.304C344.027 45.0133 348.379 40.832 353.84 37.76C359.387 34.688 365.701 33.152 372.784 33.152C379.867 33.152 386.139 34.688 391.6 37.76C397.147 40.832 401.499 45.0133 404.656 50.304C407.813 55.5947 409.392 61.6533 409.392 68.48C409.392 75.3067 407.813 81.3653 404.656 86.656C401.499 91.9467 397.147 96.128 391.6 99.2C386.139 102.272 379.867 103.808 372.784 103.808ZM372.784 86.144C375.856 86.144 378.587 85.376 380.976 83.84C383.365 82.304 385.243 80.2133 386.608 77.568C387.973 74.9227 388.613 71.8933 388.528 68.48C388.613 65.0667 387.973 62.0373 386.608 59.392C385.243 56.6613 383.365 54.528 380.976 52.992C378.587 51.456 375.856 50.688 372.784 50.688C369.712 50.688 366.939 51.456 364.464 52.992C362.075 54.528 360.197 56.6613 358.832 59.392C357.467 62.0373 356.827 65.0667 356.912 68.48C356.827 71.8933 357.467 74.9227 358.832 77.568C360.197 80.2133 362.075 82.304 364.464 83.84C366.939 85.376 369.712 86.144 372.784 86.144Z" fill="white"/>
<path d="M433.152 103.936C428.117 103.936 423.808 102.869 420.224 100.736C416.725 98.5173 413.995 95.36 412.032 91.264C410.155 87.168 409.216 82.2613 409.216 76.544V34.56H429.824V73.728C429.824 76.4587 430.251 78.8053 431.104 80.768C431.957 82.7307 433.237 84.2667 434.944 85.376C436.651 86.4 438.699 86.912 441.088 86.912C442.88 86.912 444.501 86.6133 445.952 86.016C447.488 85.4187 448.768 84.608 449.792 83.584C450.901 82.4747 451.755 81.2373 452.352 79.872C452.949 78.4213 453.248 76.8427 453.248 75.136V34.56H473.856V102.528H454.528L453.632 88.576L457.472 87.04C456.448 90.2827 454.741 93.184 452.352 95.744C449.963 98.2187 447.104 100.224 443.776 101.76C440.448 103.211 436.907 103.936 433.152 103.936Z" fill="white"/>
<path d="M509.133 103.808C502.562 103.808 496.674 102.272 491.469 99.2C486.264 96.128 482.125 91.9467 479.053 86.656C476.066 81.28 474.573 75.2213 474.573 68.48C474.573 61.7387 476.066 55.7227 479.053 50.432C482.125 45.056 486.264 40.832 491.469 37.76C496.674 34.688 502.562 33.152 509.133 33.152C515.192 33.152 520.738 34.2187 525.773 36.352C530.893 38.4853 534.946 41.472 537.933 45.312L526.797 58.624C525.602 57.2587 524.194 55.9787 522.573 54.784C520.952 53.5893 519.16 52.6507 517.197 51.968C515.234 51.2853 513.186 50.944 511.053 50.944C507.81 50.944 504.952 51.712 502.477 53.248C500.002 54.6987 498.082 56.7467 496.717 59.392C495.352 62.0373 494.669 65.0667 494.669 68.48C494.669 71.7227 495.352 74.6667 496.717 77.312C498.168 79.9573 500.13 82.048 502.605 83.584C505.08 85.12 507.896 85.888 511.053 85.888C513.272 85.888 515.32 85.632 517.197 85.12C519.074 84.5227 520.781 83.6693 522.317 82.56C523.938 81.4507 525.432 80.0853 526.797 78.464L537.805 91.904C534.904 95.5733 530.85 98.4747 525.645 100.608C520.525 102.741 515.021 103.808 509.133 103.808Z" fill="white"/>
<path d="M536.259 102.528V7.80801H556.355V48.384L552.259 49.92C553.198 46.848 554.862 44.0747 557.251 41.6C559.726 39.04 562.67 36.992 566.083 35.456C569.496 33.92 573.08 33.152 576.835 33.152C581.955 33.152 586.264 34.2187 589.763 36.352C593.262 38.4 595.907 41.5147 597.699 45.696C599.491 49.792 600.387 54.8267 600.387 60.8V102.528H579.779V62.464C579.779 59.7333 579.395 57.472 578.627 55.68C577.859 53.888 576.664 52.5653 575.043 51.712C573.507 50.7733 571.587 50.3467 569.283 50.432C567.491 50.432 565.827 50.7307 564.291 51.328C562.755 51.84 561.432 52.6507 560.323 53.76C559.214 54.784 558.318 55.9787 557.635 57.344C557.038 58.7093 556.739 60.2027 556.739 61.824V102.528H546.627C544.238 102.528 542.19 102.528 540.483 102.528C538.776 102.528 537.368 102.528 536.259 102.528Z" fill="white"/>
<path d="M635.085 102.528V12.928H654.541L687.181 66.048L673.229 65.92L706.253 12.928H724.941V102.528H703.821V74.624C703.821 66.944 703.992 60.032 704.333 53.888C704.76 47.744 705.442 41.6427 706.381 35.584L708.813 42.24L683.981 80.768H675.533L651.213 42.496L653.645 35.584C654.584 41.3013 655.224 47.1893 655.565 53.248C655.992 59.2213 656.205 66.3467 656.205 74.624V102.528H635.085Z" fill="white"/>
<path d="M764.868 103.808C757.359 103.808 750.831 102.315 745.284 99.328C739.737 96.256 735.428 92.1173 732.356 86.912C729.284 81.6213 727.748 75.6053 727.748 68.864C727.748 63.6587 728.601 58.88 730.308 54.528C732.015 50.176 734.404 46.4213 737.476 43.264C740.548 40.0213 744.175 37.5467 748.356 35.84C752.623 34.048 757.273 33.152 762.308 33.152C767.087 33.152 771.439 34.0053 775.364 35.712C779.375 37.4187 782.831 39.808 785.732 42.88C788.633 45.952 790.852 49.5787 792.388 53.76C793.924 57.9413 794.607 62.5067 794.436 67.456L794.308 72.96H740.164L737.22 61.44H777.668L775.492 63.872V61.312C775.321 59.1787 774.639 57.3013 773.444 55.68C772.335 53.9733 770.841 52.6507 768.964 51.712C767.087 50.7733 764.953 50.304 762.564 50.304C759.236 50.304 756.377 50.9867 753.988 52.352C751.684 53.632 749.935 55.552 748.74 58.112C747.545 60.5867 746.948 63.6587 746.948 67.328C746.948 71.0827 747.716 74.368 749.252 77.184C750.873 79.9147 753.177 82.048 756.164 83.584C759.236 85.12 762.863 85.888 767.044 85.888C769.945 85.888 772.505 85.4613 774.724 84.608C777.028 83.7547 779.503 82.304 782.148 80.256L791.748 93.824C789.103 96.128 786.287 98.0053 783.3 99.456C780.313 100.907 777.241 101.973 774.084 102.656C771.012 103.424 767.94 103.808 764.868 103.808Z" fill="white"/>
<path d="M820.412 103.936C814.524 103.936 809.276 102.443 804.668 99.456C800.145 96.384 796.561 92.2027 793.916 86.912C791.271 81.536 789.948 75.4347 789.948 68.608C789.948 61.7813 791.271 55.7227 793.916 50.432C796.561 45.056 800.188 40.832 804.796 37.76C809.404 34.688 814.695 33.152 820.668 33.152C823.74 33.152 826.684 33.6213 829.5 34.56C832.316 35.4987 834.876 36.7787 837.18 38.4C839.484 40.0213 841.361 41.8987 842.812 44.032C844.263 46.08 845.116 48.2133 845.372 50.432L840.508 51.584V7.80801H861.116V102.528H842.044L840.892 87.04L844.988 87.68C844.732 89.8133 843.879 91.8613 842.428 93.824C841.063 95.7867 839.271 97.536 837.052 99.072C834.833 100.523 832.273 101.675 829.372 102.528C826.556 103.467 823.569 103.936 820.412 103.936ZM825.66 86.912C828.817 86.912 831.548 86.144 833.852 84.608C836.156 83.072 837.905 80.9387 839.1 78.208C840.38 75.4773 841.02 72.2773 841.02 68.608C841.02 64.8533 840.38 61.6107 839.1 58.88C837.905 56.1493 836.156 54.016 833.852 52.48C831.548 50.944 828.817 50.176 825.66 50.176C822.503 50.176 819.772 50.944 817.468 52.48C815.249 54.016 813.5 56.1493 812.22 58.88C810.94 61.6107 810.3 64.8533 810.3 68.608C810.3 72.2773 810.94 75.4773 812.22 78.208C813.5 80.9387 815.249 83.072 817.468 84.608C819.772 86.144 822.503 86.912 825.66 86.912Z" fill="white"/>
<path d="M866.786 102.528V34.56H887.266V102.528H866.786ZM877.026 21.12C873.186 21.12 870.157 20.224 867.938 18.432C865.805 16.5547 864.738 13.9093 864.738 10.496C864.738 7.424 865.847 4.90667 868.066 2.944C870.285 0.981333 873.271 0 877.026 0C880.866 0 883.853 0.938667 885.986 2.816C888.119 4.608 889.186 7.168 889.186 10.496C889.186 13.6533 888.077 16.2133 885.858 18.176C883.725 20.1387 880.781 21.12 877.026 21.12Z" fill="white"/>
<path d="M918.797 103.68C913.08 103.68 907.96 102.187 903.437 99.2C899 96.128 895.458 91.9467 892.813 86.656C890.168 81.28 888.845 75.2213 888.845 68.48C888.845 61.568 890.168 55.4667 892.813 50.176C895.458 44.8853 899.085 40.7467 903.693 37.76C908.301 34.688 913.549 33.152 919.437 33.152C922.68 33.152 925.624 33.6213 928.269 34.56C931 35.4987 933.389 36.8213 935.437 38.528C937.485 40.1493 939.234 42.0693 940.685 44.288C942.136 46.4213 943.202 48.7253 943.885 51.2L939.661 50.688V34.56H960.013V102.528H939.277V86.144L943.885 86.016C943.202 88.4053 942.093 90.6667 940.557 92.8C939.021 94.9333 937.144 96.8107 934.925 98.432C932.706 100.053 930.232 101.333 927.501 102.272C924.77 103.211 921.869 103.68 918.797 103.68ZM924.429 86.4C927.586 86.4 930.317 85.6747 932.621 84.224C934.925 82.7733 936.717 80.7253 937.997 78.08C939.277 75.3493 939.917 72.1493 939.917 68.48C939.917 64.8107 939.277 61.6533 937.997 59.008C936.717 56.2773 934.925 54.1867 932.621 52.736C930.317 51.2 927.586 50.432 924.429 50.432C921.357 50.432 918.669 51.2 916.365 52.736C914.146 54.1867 912.397 56.2773 911.117 59.008C909.837 61.6533 909.197 64.8107 909.197 68.48C909.197 72.1493 909.837 75.3493 911.117 78.08C912.397 80.7253 914.146 82.7733 916.365 84.224C918.669 85.6747 921.357 86.4 924.429 86.4Z" fill="white"/>
</svg>
